<svg xmlns="http://www.w3.org/2000/svg" width="256" height="256" fill="none"><mask id="a" width="227" height="227" x="14" y="14" maskUnits="userSpaceOnUse" style="mask-type:alpha"><path fill="#000" d="M241 127.5a113.5 113.5 0 1 1-227 0 113.5 113.5 0 0 1 227 0Zm-213.1 0a99.6 99.6 0 1 0 199.2 0 99.6 99.6 0 0 0-199.2 0Z"/></mask><g mask="url(#a)"><path fill="#000" d="M241 127.5a113.5 113.5 0 1 1-227 0 113.5 113.5 0 0 1 227 0Zm-213.1 0a99.6 99.6 0 1 0 199.2 0 99.6 99.6 0 0 0-199.2 0Z"/><path fill="#B22EBA" d="m40 55 7.8-9H70l-10.8 9H40Zm49.1-27.7L83.3 26 77 25l12.1-5 5.9 1.4 4.8 1.4 4.9 2.2 6.3 4.2-10 2.3-2.5-1.5-4-1.5-5.4-1.2Zm57.4-4.3-4.7-4.3-5.8-5.2 6.5 1 6 1 4.1 4.1 4.9 5.4 3.5 5 2.5 5.5-9-3-3.5-5-4.5-4.5ZM189 42.2l-2.8-6L183 28l9.2 5.7 5.3 4.3 2.1 6.3 2 5.5 1.9 7.5 1.4 7.6-13.4-12.7-1-5-1.6-5Zm31 33.3 1-5 1-6.5 7 11-1 6-1 4.5-2 6-2.4 6-5-12.5 1.5-5 1-4.5Zm14.8 41 4.7-7.5 1.5 7.5.3 7.5-4 6-5.5 8.5-6.8 8.5 1.8-18.5 4-5.5 4-6.5Zm-11.8 61 8.5-4.5-3.5 8-4.5 7-5.8 2.9-9.2 4.3-12.5 4.3 13.5-15.5 6-2.5 7.5-4ZM177 225l8 .5-6 3.5-7.5 3.5-7.5-1-9-1.8-12.5-3.7 15.5-4 10 2 9 1Zm-59 12 5.5 3.5h-9l-7.5-1-4.5-4.5-5-6-5.5-8 13 3.5 6.5 7 6.5 5.5Zm-59.2-26 1.7 8-5.1-3-5-4.6-1-6.5-1-10-1-8.5 9.4 11 .7 6.6 1.3 7Zm-33-48.5-3 9.5-3.4-8.5L17 155l2.5-6 4.4-10 4.2-9 2.3 18-2.5 8-2 6.5Zm-4.2-62-5.2 3.5 1-5.9 2.3-5.8 4.7-3 7.3-4 8-3.8-6 12.8-6 2.7-6 3.5Z"/></g><path fill="#000" fill-opacity=".8" d="M210 127.5a82.5 82.5 0 1 1-165 0 82.5 82.5 0 0 1 165 0Zm-157.7 0a75.2 75.2 0 1 0 150.4 0 75.2 75.2 0 0 0-150.4 0Z"/><path fill="#F764FF" d="M178 127.5a50.5 50.5 0 1 1-101 0 50.5 50.5 0 0 1 101 0Zm-90.7 0a40.2 40.2 0 1 0 80.4 0 40.2 40.2 0 0 0-80.4 0Z"/><path fill="#902F9B" d="M153.5 135.5a982.8 982.8 0 0 1-30-108A1185.6 1185.6 0 0 1 82 188c1.9 52.8 103.4 39 91.5 0-4-14.4-13.5-33.9-20-52.5Z"/><path fill="#EB5EF4" d="M95.8 188c1.5 3.5 10.5 9 12.5 11.5-3.5 1.5-11.5-.5-14.5-5-4.5-4-6.5-12-3-13.5 3.5.5 2.5 4 5 7Zm3-11.5c1.5 3.5 10.5 9 12.5 11.5-3.5 1.5-11.5-.5-14.5-5-4.5-4-6.5-12-3-13.5 3.5.5 2.5 4 5 7ZM92.7 198c1.7 3.5 11 8.6 13 11-3.4 1.7-11.4 0-14.6-4.3-4.7-3.8-7.1-11.7-3.7-13.4 3.5.3 2.7 4 5.3 6.8Zm26.3-12.5c0 10.4-.8 15.9-3 24.5l-2 3c-1 .6-1.5.8-2.5 1v-1.2l-.5-3.3c2-8.3 3-12.9 3-30.5 1.1-1.6 2.9-1.7 4.5 0 .5 2.7.5 3.7.5 5.8v.7Z"/><path fill="#EB5EF4" d="m118.4 188.8-.5 5 2.6 2.2 2 2.5 2 1.5c2.3 1 3 1.2 3.9 1.3a15.7 15.7 0 0 1-2.5-4c-.8-1.1-1-1.7-2.4-3.3l-2.6-3.2c-.2-.1-1.4-1.3-2.5-2Zm4.6-3.8c-.2-2 .3-2 2-1l1 1 1 1.6c.6 1 1.5 2.8 1.5 3.5-.7 0-.6-.1-1.5-.5l-2-1.5c-1-1.2-1-1.3-2-3Zm3.2-4c-.1-1.6-.2-2.6 1.4-2l1 1 2 3.5.5 2.5c-.8 0-1.2-.7-2-1l-.9-1c-1-1.2-1-1.3-2-3Zm24.3 1.5c0 10.4 0 15-2 23.7-.4 1.1-3.7 6.1-5 5.8a32.4 32.4 0 0 1-.4-5.5c0-1.5 2.3-13 1.8-30.4 1.1-1.6 3.4-1.8 5-.1.6 2.7.6 3.7.6 5.8v.7Z"/><path fill="#EB5EF4" d="m139.7 183.4 5.6-2.8v3.5c-3.6 1.1-4.2 1.7-5.6 1.8v-2.5Z"/><path fill="#EB5EF4" d="M139.7 183c-.1 6-.2 8.4-3.2 9.3-2.5-1-1-4-.7-10.5-.1-4 0-5 1.6-5.5 1.7-.1 2.5 2.1 2.3 6.6Zm23.2 19c-4.6 4.8-8.3 9-7.9 9 .4 0 6.3-1 11.4-6.5 4.5-4 6.6-11 5.1-12.5s-5.5 5.8-8.6 10Zm-1.4-24c3.2-2.5 4.9-1.1 4.6 1.5-.3 2.6-6.7 9.6-7 9.5-2.4 1.5-3.6 1.8-5.5 1.5-.1-1.5 0-2.3 1-4l6.9-8.5Z"/><path fill="#F764FF" d="M127.5 93c-.7-4-.9-6.2-1-10 .7-7.2 1.5-6.6 3-2 1.5 4.4 5 17.4 5 17.4 7.1 23.4 12.5 51.5 13.5 54s-5.4-11.5-9.5-20c-4.7-15.4-7.2-24-11-39.5Z"/><path fill="url(#b)" d="M223.8 239.6 215 215l25.4 9.6L255 255l-31.2-15.4Z"/><path fill="url(#c)" d="M32.2 16.4 41 41l-25.4-9.6L1 1l31.2 15.4Z"/><defs><linearGradient id="b" x1="215" x2="252" y1="215" y2="256" gradientUnits="userSpaceOnUse"><stop offset=".3" stop-color="#B22EBA"/><stop offset=".5"/></linearGradient><linearGradient id="c" x1="41" x2="4" y1="41" y2="0" gradientUnits="userSpaceOnUse"><stop offset=".3" stop-color="#B22EBA"/><stop offset=".5"/></linearGradient></defs></svg>